inDegrees=no
num_controls=7
num_derivatives=13
num_iterations=47
num_multipliers=7
num_parameters=0
num_slacks=7
num_states=26
objective=0.490214
objective_accelerations=0.003511
objective_balance=0.002202
objective_effort=0.003852
objective_height=0.459288
objective_ligament=0.021361
solver_duration=649.579242
status=Solve_Succeeded
success=true
DataType=double
version=3
OpenSimVersion=4.5
endheader
time	/jointset/ground_pelvis/pelvis_tilt/value	/jointset/ground_pelvis/pelvis_tx/value	/jointset/ground_pelvis/pelvis_ty/value	/jointset/hip_l/hip_flexion_l/value	/jointset/hip_l/hip_adduction_l/value	/jointset/hip_l/hip_rotation_l/value	/jointset/back/lumbar_extension/value	/jointset/patellofemoral_l/patellar_flexion_l/value	/jointset/knee_l/knee_flexion_l/value	/jointset/knee_l/knee_adduction_l/value	/jointset/knee_l/knee_rotation_l/value	/jointset/ankle_l/ankle_angle_l/value	/jointset/subtalar_l/subtalar_angle_l/value	/jointset/ground_pelvis/pelvis_tilt/speed	/jointset/ground_pelvis/pelvis_tx/speed	/jointset/ground_pelvis/pelvis_ty/speed	/jointset/hip_l/hip_flexion_l/speed	/jointset/hip_l/hip_adduction_l/speed	/jointset/hip_l/hip_rotation_l/speed	/jointset/back/lumbar_extension/speed	/jointset/patellofemoral_l/patellar_flexion_l/speed	/jointset/knee_l/knee_flexion_l/speed	/jointset/knee_l/knee_adduction_l/speed	/jointset/knee_l/knee_rotation_l/speed	/jointset/ankle_l/ankle_angle_l/speed	/jointset/subtalar_l/subtalar_angle_l/speed	/forceset/tau_hip_flexion_l	/forceset/tau_hip_adduction_l	/forceset/tau_hip_rotation_l	/forceset/tau_knee_flexion_l	/forceset/tau_ankle_angle_l	/forceset/tau_subtalar_angle_l	/forceset/tau_lumbar_extension	lambda_cid13_p0	lambda_cid13_p1	lambda_cid13_p2	lambda_cid13_p3	lambda_cid13_p4	lambda_cid13_p5	lambda_cid14_p0	/jointset/ground_pelvis/pelvis_tilt/accel	/jointset/ground_pelvis/pelvis_tx/accel	/jointset/ground_pelvis/pelvis_ty/accel	/jointset/hip_l/hip_flexion_l/accel	/jointset/hip_l/hip_adduction_l/accel	/jointset/hip_l/hip_rotation_l/accel	/jointset/back/lumbar_extension/accel	/jointset/patellofemoral_l/patellar_flexion_l/accel	/jointset/knee_l/knee_flexion_l/accel	/jointset/knee_l/knee_adduction_l/accel	/jointset/knee_l/knee_rotation_l/accel	/jointset/ankle_l/ankle_angle_l/accel	/jointset/subtalar_l/subtalar_angle_l/accel	gamma_cid13_p0	gamma_cid13_p1	gamma_cid13_p2	gamma_cid13_p3	gamma_cid13_p4	gamma_cid13_p5	gamma_cid14_p0
1.5	-0.08346718897111954	0.1556198259936353	0.9075160346530211	0.1528265461057467	-0.2283350452941459	-0.2455615784883025	-0.07938959286357229	0.05402114418724899	0.05402114418726069	0.0762520871467566	-0.06809561681558089	0.0928109033236806	0.2382994133684234	-0.1131795011110105	0.01358411854571465	-0.004156766055897438	0.03528332681524572	0.01643843748597869	-0.03234183225279392	0.129336153942101	-0.13294392863785	-0.1329439286378506	-0.003430995011664326	-0.003268198901236186	-0.05693442950304602	-0.005596681951400857	0.01706482164444509	0.07486832094519862	-0.001317946156599478	-0.03181462350616526	-0.01308919978840637	-0.05954272465611386	0.01616948712256951	-36.35681099367811	27.50866671295729	0.7207935563529472	6.563060448454756	-460.8337677716912	-19.9344006655968	-20.61998017659119	0.2259666697281813	-0.1285876252910501	0.01123038821357881	-0.005634503117984747	-0.007765820048932425	0.06928454898774623	-0.08200458863633393	0.1427030804939282	0.1427030804939261	0.01327559803815733	0.005444408632757015	-0.07507757513730683	-0.04214305409483992	-1.228718108139755e-10	2.005616352648783e-10	3.028560589462713e-09	-3.435555333474718e-10	3.285262680682359e-09	-1.687557347235352e-09	-4.55573230743762e-10
1.51	-0.08458753639973067	0.1557491878876602	0.9074750461817316	0.1531789849222813	-0.2281710071089698	-0.2458815714162844	-0.07810041200787177	0.0526987940396003	0.05269879403962018	0.07621851570337591	-0.0681280546210439	0.09223773993734183	0.2382413608641536	-0.1108780396153994	0.0122826833799307	-0.004039876849031937	0.03520389452925925	0.01636879912117864	-0.031655126118615	0.1284948384715689	-0.1315166763874579	-0.1315166763874539	-0.003281360625425176	-0.003221016711394686	-0.05769966929472925	-0.006014808006083242	0.01670932133202252	0.07498024181281032	-0.001402981445034862	-0.03081530923397604	-0.0138946646752466	-0.0596497888873735	0.01627116889950584	-36.61424007148008	27.51816179554674	0.8130313167821619	6.739009294077853	-460.836116176371	-19.90541732034718	-20.5934685177961	0.2340274386940754	-0.1317580498073844	0.01207655431862993	-0.009179030780663355	-0.006623399280380523	0.06860719128188668	-0.08597183514739135	0.1441500695153484	0.1441500695160648	0.01609773253856707	0.004107436156070845	-0.07746046131318302	-0.04179619167761994	-1.674369673796442e-10	3.418743523367612e-10	3.126645106066997e-09	-3.006006440036718e-10	3.309663374687459e-09	-1.581415211846868e-09	-4.732526049865349e-10
1.52	-0.08568451090354097	0.1558653681125103	0.9074352582759897	0.1535306131280584	-0.2280076774183583	-0.2461946485737975	-0.07681979966865601	0.05139099916889363	0.05139099916890171	0.07618649867856415	-0.06816007014220313	0.09165688149705814	0.2381790973372327	-0.1085049161511295	0.01094778471075002	-0.003916652946332541	0.03512120466560724	0.01629673857297207	-0.03095867815847689	0.1276224506456047	-0.1300328732489271	-0.1300328732489186	-0.003120111294307801	-0.003183742041700581	-0.05847344029158619	-0.006438886481670267	0.01635382101946993	0.07509216268047827	-0.001488016733451137	-0.02981599496186858	-0.01470012956210925	-0.05975685311857887	0.0163728506763486	-36.87121711508722	27.52759978008665	0.9052529953153752	6.91854015151227	-460.8293245555935	-19.87289270303192	-20.56701418634242	0.240299063459932	-0.1352803259703934	0.01249732738035792	-0.00628601865110389	-0.008250256730248564	0.07123291417960913	-0.08821905972274637	0.1540132581216661	0.1540132581216612	0.0155985870137779	0.003462904603296043	-0.07678381617204151	-0.04333353827578024	-1.898937964345611e-10	3.360290551517333e-10	3.227413548756863e-09	-3.002515933521593e-10	3.286613536005339e-09	-1.754707527951466e-09	-4.817678562997663e-10
1.53	-0.08675738956627956	0.1559680366593071	0.9073967347819372	0.1538813828896167	-0.2278450786642877	-0.2465007195581289	-0.07554806251991295	0.05009831934978916	0.05009831934980262	0.07615615432756648	-0.06819176623699395	0.09106824693560692	0.2381125673305644	-0.1060583902408044	0.009580773167000322	-0.003786988438390521	0.03503141426625964	0.01622242366784733	-0.0302539556328919	0.1267203391878791	-0.1284931125620119	-0.128493112562011	-0.002947030310526228	-0.003157197856775003	-0.05925404839777467	-0.006867941685224565	0.01601223437473769	0.07519191157388574	-0.00156903794680594	-0.02886079921650925	-0.01545051233091984	-0.05985801587597351	0.01646908578222621	-37.11077816166399	27.53509004817777	0.9935992134141813	7.088433540824667	-460.8309821172131	-19.84927436470993	-20.54063746837993	0.2486930721326909	-0.1381843646496615	0.01336026113237824	-0.01052570934397369	-0.007110974200973112	0.07032582156277511	-0.09190317597415425	0.1554542715286454	0.1554542715275423	0.01842258790575297	0.001992545690641362	-0.07878583045533424	-0.04281595514678278	-1.888605275093044e-10	1.738283678187395e-10	3.331033662912659e-09	-3.45171246311202e-10	3.213147506343049e-09	-2.22489894876746e-09	-4.805462270003601e-10
1.54	-0.08780543022645161	0.1560568805314519	0.9073595397826906	0.1542312147154164	-0.2276832408326272	-0.2467996965372441	-0.07428548568318565	0.04882133649706056	0.04882133649706324	0.07612759273315824	-0.06822324841587991	0.09047178898856877	0.2380417218831105	-0.1035373156379295	0.008182849780371832	-0.003650953985124122	0.03493361751621878	0.01614455409081287	-0.02953987711471172	0.1257903882430838	-0.1268934799730088	-0.1268934799730156	-0.002763559972920438	-0.003140958861708026	-0.06003811740848567	-0.007301974638837137	0.01567064772985919	0.07529166046735007	-0.00165005916013318	-0.02790560347122978	-0.01620089509975058	-0.05995917863331234	0.01656532088799178	-37.34985224999316	27.54252830016492	1.081915748973326	7.262005512980088	-460.8228274248356	-19.82180373753974	-20.51436176641251	0.2552088019698882	-0.1414626945461469	0.01377131644523382	-0.007887288789762822	-0.008961191112199566	0.07310411269867439	-0.09378695713665977	0.1659876385392416	0.1659876385392492	0.01767645777860273	0.00140186663159768	-0.0774759970765376	-0.04432908828744415	-2.30287110240216e-10	1.50341312424559e-10	3.453063163060598e-09	-3.306782389052368e-10	3.222443638850912e-09	-2.407345704895401e-09	-4.992116871322422e-10
1.55	-0.0888278990756048	0.1561315984172456	0.9073237362910452	0.1545800237840289	-0.2275221979769479	-0.2470914907839749	-0.07303235936751165	0.04756063518014105	0.04756063518015153	0.07610091712597328	-0.06825461944707627	0.08986747519932439	0.2379665139950306	-0.100945334715723	0.006756318159639165	-0.00350879972514724	0.03482713817468203	0.01606329074540512	-0.02881723850029583	0.1248291739419179	-0.1252370766617349	-0.1252370766617453	-0.002570140109850002	-0.003134579348156177	-0.06082455929059487	-0.007740294313399139	0.01538620381370522	0.0753530836706197	-0.001718553019850682	-0.02707462572060504	-0.01678989348994192	-0.06005523297202593	0.01662597277043245	-37.53822865359867	27.54971511444709	1.157885975191961	7.402226746499564	-460.8247275462013	-19.80818520133545	-20.48820844478546	0.2628604352959938	-0.143909818958869	0.0145798506410095	-0.01218712999636424	-0.007818443908235061	0.07210318266673957	-0.09814380897575564	0.1669228027223046	0.1669228027217964	0.0203884437344624	5.675264080988625e-05	-0.07921619785835604	-0.04368760018132548	-3.20634826401058e-10	2.866764851337848e-10	3.596303477503831e-09	-2.477315141222013e-10	3.327096175598294e-09	-2.25826056475234e-09	-5.40790532913216e-10
1.56	-0.08982411457594601	0.1561919187022076	0.9072893828159735	0.1549277362845803	-0.2273619896622524	-0.2473760067551931	-0.07178901622332699	0.04631678912138597	0.04631678912140048	0.07607621845604313	-0.06828596653135445	0.08925529940844093	0.2378869020715773	-0.09828664587552688	0.005303329614043847	-0.003360950670368832	0.03471430390671885	0.0159776458938573	-0.02808422201173109	0.1238337539459814	-0.1235224283384273	-0.1235224283384414	-0.002368172520244074	-0.003136169477647596	-0.06161051773591283	-0.008182781713588336	0.01510175989738623	0.07541450687393829	-0.001787046879482148	-0.02624364797005569	-0.01737889188015393	-0.06015128731069374	0.01668662465274432	-37.72608071594594	27.55685782826547	1.233808740103576	7.546179650946292	-460.816114288682	-19.79042132338052	-20.46220113647208	0.2685503855677993	-0.1467540795186716	0.01491027540553915	-0.009158274075060624	-0.00983749234022073	0.07517968752847379	-0.1006280960907724	0.1776366409459703	0.1776366409459705	0.01938600308568844	-0.0001920619770312704	-0.07737930971828619	-0.04516263341288818	-3.46724402049705e-10	3.196892701092089e-10	3.697097464158474e-09	-2.199289473234602e-10	3.479988165161481e-09	-2.274955907676818e-09	-5.59001787690438e-10
1.57	-0.09079341393226129	0.1562375855697942	0.907256535966007	0.1552742762021995	-0.227202658734361	-0.2476531505166882	-0.07055580014068315	0.04509036913350841	0.04509036913351423	0.07605358105196774	-0.06831737419935115	0.0886352720128676	0.2378028481591937	-0.09556266530312679	0.003826473590067131	-0.003207551343246552	0.03459211866701014	0.01588761768208762	-0.02734320180174866	0.1228036852089285	-0.1217518814434887	-0.1217518814435006	-0.002158257645123811	-0.003146894413268668	-0.06239387619035194	-0.008628466487980288	0.01486011871503086	0.07544143143167473	-0.001845519188815179	-0.02551445078213626	-0.01783618821182516	-0.06023831714316701	0.01672265749473949	-37.87214048471112	27.56164690271898	1.299959951161121	7.662222479421779	-460.8175487778284	-19.78845796964182	-20.43636104900936	0.2759056787096826	-0.1486869677481112	0.01568572150216768	-0.01398295531795802	-0.008724431256330618	0.07376183422470281	-0.1050628684891212	0.178216991361249	0.1782169913616351	0.02195232990686008	-0.001741685571744032	-0.07865141347044474	-0.04434173461034827	-2.924913020581088e-10	2.23549070417382e-10	3.744833541077377e-09	-2.610565780050866e-10	3.693179470744423e-09	-2.498876854435719e-09	-5.480035537129703e-10
